<svg t="1654046089926" class="icon" viewBox="0 0 1024 1024" version="1.1" xmlns="http://www.w3.org/2000/svg" p-id="1839" width="200" height="200"><path d="M561.3 163.5v696.9c0 27.5-22.3 49.8-49.8 49.8h-29.4c-13.1-0.1-25.6-5.2-34.8-14.4L256.6 705c-28-28-65.9-43.8-105.5-43.8-23.2 0-45.5-9.2-62-25.7-16.4-16.4-25.7-38.7-25.7-62V450.2c0-48.4 39.2-87.6 87.6-87.6 39.6 0 77.6-15.8 105.5-43.8l190.6-190.7c9.3-9.2 21.8-14.4 34.8-14.4h29.4c27.7 0 50 22.3 50 49.8z m310.6 348.4l80.1-80.6c4.8-4.5 7.5-10.8 7.5-17.4 0-6.6-2.7-12.9-7.5-17.4L925.6 370c-4.5-4.8-10.8-7.5-17.4-7.5-6.6 0-12.9 2.7-17.4 7.5l-80.6 80.1-80.7-80.1c-4.5-4.8-10.8-7.5-17.4-7.5-6.6 0-12.9 2.7-17.4 7.5l-26.4 26.4c-4.8 4.5-7.5 10.8-7.5 17.4 0 6.6 2.7 12.9 7.5 17.4l80.1 80.6-80.1 80.6c-4.8 4.5-7.5 10.8-7.5 17.4 0 6.6 2.7 12.9 7.5 17.4l26.4 26.4c4.5 4.8 10.8 7.5 17.4 7.5 6.6 0 12.9-2.7 17.4-7.5l80.6-80.1 80.6 80.1c4.5 4.8 10.8 7.5 17.4 7.5 6.6 0 12.9-2.7 17.4-7.5l26.4-26.4c4.8-4.5 7.5-10.8 7.5-17.4 0-6.6-2.7-12.9-7.5-17.4l-80-80.5z m0 0" p-id="1840"></path></svg>