<svg t="1655902862883" class="icon" viewBox="0 0 1024 1024" version="1.1" xmlns="http://www.w3.org/2000/svg" p-id="12621" width="200" height="200"><path d="M515.33035 5.681396C234.936265 5.681396 7.707031 232.972029 7.707031 513.305739c0 280.364409 227.229235 507.624343 507.624343 507.624343 280.33371 0 507.624343-227.259934 507.624343-507.624343C1022.955716 232.973052 795.66406 5.681396 515.33035 5.681396zM718.145545 336.734254c0 0-223.944422 389.980969-227.786936 393.638265-12.765745 11.958356-32.841989 11.308557-44.862767-1.488911L300.496423 595.10065c-12.021801-12.765745-11.401678-32.841989 1.425466-44.832068 12.827143-11.992125 32.903388-11.310603 44.862767 1.455141l113.459075 104.72311 202.936969-351.469863c8.736988-15.181771 28.195156-20.355607 43.314505-11.587919C721.74042 302.156738 726.944955 321.552483 718.145545 336.734254z" p-id="12622" fill="#52c41a"></path></svg>