<svg t="1653552495923" class="icon" viewBox="0 0 1024 1024" version="1.1" xmlns="http://www.w3.org/2000/svg" p-id="3109" width="200" height="200"><path d="M469.0944 92.2624c-224.2048 0-405.9648 169.4208-405.9648 378.368 0 90.0096 33.7408 172.6464 90.0608 237.6192l-50.3808 134.912c-7.6288 20.3776 10.8032 40.9088 31.8976 35.584l200.704-50.7904c41.8816 13.6192 86.8352 21.0432 133.6832 21.0432 224.2048 0 405.9648-169.4208 405.9648-378.368s-181.76-378.368-405.9648-378.368z" fill="#4BE2AC" p-id="3110"></path><path d="M709.5296 677.5296m-254.208 0a254.208 254.208 0 1 0 508.416 0 254.208 254.208 0 1 0-508.416 0Z" fill="#4BE2AC" p-id="3111"></path><path d="M519.2704 846.08c195.6864-22.4768 348.2624-174.7968 355.4816-361.6768-44.4416-38.0416-102.144-61.1328-165.2224-61.1328-140.3904 0-254.208 113.8176-254.208 254.208-0.0512 64.768 24.1664 123.7504 63.9488 168.6016z" fill="#06CC76" p-id="3112"></path><path d="M833.0752 699.4944h-7.7312v-43.264h7.7312c22.6304 0 40.96-18.3296 40.96-40.96s-18.3296-40.96-40.96-40.96h-7.7312v-7.7312c0-22.6304-18.3296-40.96-40.96-40.96s-40.96 18.3296-40.96 40.96v7.7312h-43.264v-7.7312c0-22.6304-18.3296-40.96-40.96-40.96s-40.96 18.3296-40.96 40.96v7.7312h-7.7312c-22.6304 0-40.96 18.3296-40.96 40.96s18.3296 40.96 40.96 40.96h7.7312v43.264h-7.7312c-22.6304 0-40.96 18.3296-40.96 40.96s18.3296 40.96 40.96 40.96h7.7312v7.7312c0 22.6304 18.3296 40.96 40.96 40.96s40.96-18.3296 40.96-40.96v-7.7312h43.264v7.7312c0 22.6304 18.3296 40.96 40.96 40.96s40.96-18.3296 40.96-40.96v-7.7312h7.7312c22.6304 0 40.96-18.3296 40.96-40.96s-18.3296-40.96-40.96-40.96z m-132.9152 0v-43.264h43.264v43.264h-43.264z" fill="#FFFFFF" p-id="3113"></path></svg>