<svg t="1653982921226" class="icon" viewBox="0 0 1024 1024" version="1.1" xmlns="http://www.w3.org/2000/svg" p-id="2395" width="200" height="200"><path d="M917.2736 0c-18.9952 0-33.2288 15.8208-33.2288 33.2544V585.728c-76.0064-55.3984-197.888-55.3984-308.736 7.936-136.1408 79.1296-196.3008 223.2064-139.2896 327.68 58.5728 107.648 216.8832 121.9072 353.024 42.752 104.4992-61.7472 166.2208-161.4848 161.4848-251.7248V33.28C950.528 15.8464 936.2688 0 917.248 0zM106.752 303.9488h607.9232c18.9952 0 33.2288-15.8208 33.2288-33.2288 0-18.9952-15.8208-33.2544-33.2288-33.2544H106.7264c-18.9952 0-33.2544 15.8208-33.2544 33.2544 0 18.9952 14.2592 33.2288 33.2544 33.2288z m0-202.624h607.9232c18.9952 0 33.2288-15.8464 33.2288-33.2544 0-18.9952-15.8208-33.2288-33.2288-33.2288H106.7264C87.7312 34.816 73.472 50.6624 73.472 68.0704s14.2592 33.2544 33.2544 33.2544z m0 405.248H478.72c18.9952 0 33.2544-15.7952 33.2544-33.2288 0-18.9952-15.8208-33.2288-33.2544-33.2288H106.752c-18.9952 0-33.2544 15.8208-33.2544 33.2288 0 18.9952 14.2592 33.2544 33.2544 33.2544z m202.624 136.192H106.752c-18.9952 0-33.2544 15.8208-33.2544 33.2288 0 18.9952 15.8464 33.2288 33.2544 33.2288h202.624c19.0208 0 33.28-15.8208 33.28-33.2288 0-18.9952-14.2592-33.2544-33.28-33.2544z" p-id="2396"></path></svg>