<svg t="1653983171966" class="icon" viewBox="0 0 1024 1024" version="1.1" xmlns="http://www.w3.org/2000/svg" p-id="2669" width="200" height="200"><path d="M562.2 164v696c0 27.5-22.3 49.7-49.7 49.7h-29.3c-13-0.1-25.5-5.2-34.8-14.4L257.9 704.9c-27.9-28-65.9-43.7-105.4-43.8-23.2 0-45.5-9.2-61.9-25.6C74.2 619.1 65 596.9 65 573.6V450.4c0-48.3 39.2-87.5 87.5-87.5 39.5 0 77.5-15.8 105.4-43.8l190.4-190.4c9.3-9.2 21.8-14.4 34.8-14.4h29.3c27.5 0 49.8 22.2 49.8 49.7z m298.3 86c-4.8-4.8-11.1-7.8-17.9-8.4-6.9-0.2-13.6 2.5-18.4 7.5l-35.3 35.3c-8.8 9.5-8.8 24.3 0 33.8 95.5 111.6 95.5 276.2 0 387.8-8.8 9.5-8.8 24.3 0 33.8l35.3 35.3c4.8 4.9 11.5 7.6 18.4 7.5 6.8-0.5 13.2-3.5 17.9-8.5C991.8 624 991.8 400 860.5 250zM703.4 382.7c-7.2-0.3-14.2 2.4-19.4 7.5L648.7 426c-8.5 8.3-9.9 21.4-3.5 31.3 21.9 33.2 21.9 76.2 0 109.4-6.5 9.9-5 23 3.5 31.3l35.3 35.8c5.2 4.9 12.2 7.4 19.4 7 7.2-0.5 13.8-3.9 18.4-9.4 53-70.7 53-167.9 0-238.6-4.7-5.7-11.2-9.2-18.4-10.1z m0 0" p-id="2670"></path></svg>